<svg xmlns="http://www.w3.org/2000/svg" viewBox="0 0 686.3 61.08"><defs><style>.cls-1{fill:#1c1b1a;}</style></defs><g id="레이어_2" data-name="레이어 2"><g id="심볼이_포함된_좌우조합형_로고_-_Black" data-name="심볼이 포함된 좌우조합형 로고 - Black"><path class="cls-1" d="M353.58,48.24h32.75v11.7H340.61V1h13Zm-71.23,11.7h45.71V48.41H295.14V36.24h29.11V24.71H295.14V12.55h32.92V1H282.35Zm116.23,0h13V1h-13ZM150.11,1h-13V59.94h45.72V48.24H150.11Zm45,58.92h13V1h-13ZM535.62,1v36.8L508.1,1.66,507.61,1H495.13V59.94h13V22.52l27.52,36.13,1,1.29h12V1ZM482.5,18.48A29.15,29.15,0,0,0,476,8.88,31.59,31.59,0,0,0,466,2.4a34.46,34.46,0,0,0-25.27,0,30.31,30.31,0,0,0-16.56,16.25,29.78,29.78,0,0,0-2.36,11.83v.17a29.93,29.93,0,0,0,2.33,11.82,29,29,0,0,0,6.51,9.6,31.5,31.5,0,0,0,9.95,6.49A32.65,32.65,0,0,0,453.26,61a33,33,0,0,0,12.65-2.39,30.25,30.25,0,0,0,16.55-16.25,29.65,29.65,0,0,0,2.37-11.83v-.17A30.15,30.15,0,0,0,482.5,18.48ZM471.45,30.65a19.37,19.37,0,0,1-1.33,7.21,18.72,18.72,0,0,1-3.69,5.93,16.59,16.59,0,0,1-5.71,4,18.09,18.09,0,0,1-7.3,1.45,17.73,17.73,0,0,1-7.34-1.49,18.34,18.34,0,0,1-5.75-4.06,17.93,17.93,0,0,1-3.77-6,19.69,19.69,0,0,1-1.33-7.25v-.17a19.46,19.46,0,0,1,1.33-7.22,18.65,18.65,0,0,1,3.69-5.93,16.61,16.61,0,0,1,5.66-4,18,18,0,0,1,7.34-1.46,17.66,17.66,0,0,1,7.3,1.5,18.19,18.19,0,0,1,5.8,4,17.93,17.93,0,0,1,3.77,6,19.78,19.78,0,0,1,1.33,7.26ZM273.08,1H257.42L233.52,26.3V1h-13V59.94h13v-18l6.82-7.07L258.6,59.94h15.57L249.09,26ZM80,22.44,114.29,1H80Z"/><path class="cls-1" d="M80,44.7V59.94H34.29V22.44L0,1H40.38V44.7Z"/><path class="cls-1" d="M577.15,34.79V1h13V34.45c0,9.64,4.82,14.63,12.77,14.63s12.77-4.82,12.77-14.21V1h13v33.4c0,17.92-10.06,26.71-26,26.71S577.15,52.21,577.15,34.79Z"/><path class="cls-1" d="M639.46,51.53l7.7-9.22c5.32,4.4,10.9,7.19,17.67,7.19,5.33,0,8.54-2.11,8.54-5.58v-.17c0-3.3-2-5-11.92-7.52-11.93-3-19.62-6.35-19.62-18.1V18c0-10.73,8.62-17.84,20.72-17.84a34.25,34.25,0,0,1,22,7.53l-6.76,9.81c-5.25-3.64-10.4-5.84-15.39-5.84s-7.61,2.28-7.61,5.16V17c0,3.89,2.53,5.16,12.76,7.78,12,3.13,18.77,7.44,18.77,17.75v.17c0,11.75-9,18.35-21.72,18.35A37.69,37.69,0,0,1,639.46,51.53Z"/></g></g></svg>