<svg xmlns="http://www.w3.org/2000/svg" viewBox="0 0 686.3 61.08"><defs><style>.cls-1{fill:#ff7710;}.cls-2{fill:#1c1b1a;}</style></defs><g id="레이어_2" data-name="레이어 2"><g id="심볼이_포함된_좌우조합형_로고" data-name="심볼이 포함된 좌우조합형 로고"><path class="cls-1" d="M80,44.7V59.94H34.29V22.44L0,1H40.38V44.7Z"/><polygon class="cls-2" points="282.35 59.94 328.06 59.94 328.06 48.41 295.14 48.41 295.14 36.24 324.25 36.24 324.25 24.71 295.14 24.71 295.14 12.55 328.06 12.55 328.06 1.02 282.35 1.02 282.35 59.94"/><polygon class="cls-2" points="273.08 1.02 257.42 1.02 233.52 26.3 233.52 1.02 220.55 1.02 220.55 59.94 233.52 59.94 233.52 41.92 240.34 34.85 258.6 59.94 274.17 59.94 249.09 26.01 273.08 1.02"/><rect class="cls-2" x="195.12" y="1.02" width="12.96" height="58.92"/><polygon class="cls-2" points="150.11 1.02 137.15 1.02 137.15 59.94 182.86 59.94 182.86 48.24 150.11 48.24 150.11 1.02"/><polygon class="cls-2" points="80 22.44 114.29 1.02 80 1.02 80 22.44"/><polygon class="cls-2" points="353.57 1.02 340.61 1.02 340.61 59.94 386.33 59.94 386.33 48.24 353.57 48.24 353.57 1.02"/><polygon class="cls-2" points="535.62 37.82 508.1 1.66 507.61 1.02 495.13 1.02 495.13 5.5 495.13 59.94 508.1 59.94 508.1 22.52 535.62 58.65 536.6 59.94 542.35 59.94 548.58 59.94 548.58 1.02 535.62 1.02 535.62 37.82"/><rect class="cls-2" x="398.58" y="1.02" width="12.96" height="58.92"/><path class="cls-2" d="M476,8.88A31.59,31.59,0,0,0,466,2.4a34.46,34.46,0,0,0-25.27,0,30.31,30.31,0,0,0-16.56,16.25,29.78,29.78,0,0,0-2.36,11.83v.17a29.93,29.93,0,0,0,2.33,11.82,29,29,0,0,0,6.51,9.6,31.5,31.5,0,0,0,9.95,6.49A32.65,32.65,0,0,0,453.26,61a33,33,0,0,0,12.65-2.39,30.25,30.25,0,0,0,16.55-16.25,29.65,29.65,0,0,0,2.37-11.83v-.17a30.15,30.15,0,0,0-2.33-11.83A29.15,29.15,0,0,0,476,8.88Zm-4.54,21.77a19.37,19.37,0,0,1-1.33,7.21,18.72,18.72,0,0,1-3.69,5.93,16.59,16.59,0,0,1-5.71,4,18.09,18.09,0,0,1-7.3,1.45,17.73,17.73,0,0,1-7.34-1.49,18.34,18.34,0,0,1-5.75-4.06,17.93,17.93,0,0,1-3.77-6,19.69,19.69,0,0,1-1.33-7.25v-.17a19.46,19.46,0,0,1,1.33-7.22,18.65,18.65,0,0,1,3.69-5.93,16.61,16.61,0,0,1,5.66-4,18,18,0,0,1,7.34-1.46,17.66,17.66,0,0,1,7.3,1.5,18.19,18.19,0,0,1,5.8,4,17.93,17.93,0,0,1,3.77,6,19.78,19.78,0,0,1,1.33,7.26Z"/><path class="cls-2" d="M615.71,34.87c0,9.39-4.82,14.21-12.77,14.21s-12.77-5-12.77-14.63V1h-13V34.79c0,17.42,9.72,26.29,25.62,26.29s26-8.79,26-26.71V1h-13Z"/><path class="cls-2" d="M667.53,24.73c-10.23-2.62-12.76-3.89-12.76-7.78v-.17c0-2.88,2.62-5.16,7.61-5.16s10.14,2.2,15.39,5.84l6.76-9.81a34.25,34.25,0,0,0-22-7.53c-12.1,0-20.72,7.11-20.72,17.84v.17c0,11.75,7.69,15.05,19.62,18.1,9.89,2.53,11.92,4.22,11.92,7.52v.17c0,3.47-3.21,5.58-8.54,5.58-6.77,0-12.35-2.79-17.67-7.19l-7.7,9.22A37.69,37.69,0,0,0,664.58,61c12.76,0,21.72-6.6,21.72-18.35v-.17C686.3,32.17,679.54,27.86,667.53,24.73Z"/></g></g></svg>